<?xml version="1.0" encoding="iso-8859-1"?>
<!-- Generator: Adobe Illustrator 21.0.0, SVG Export Plug-In . SVG Version: 6.00 Build 0)  -->
<svg xmlns="http://www.w3.org/2000/svg" xmlns:xlink="http://www.w3.org/1999/xlink" version="1.1" id="Capa_1" x="0px" y="0px" viewBox="0 0 512 512" style="enable-background:new 0 0 512 512;" xml:space="preserve" width="512" height="512">
<g>
	<g>
		<path style="fill:#B34F03;" d="M153.935,208c-2.543,0-5.088-0.646-7.378-1.94l-83.074-46.935c-4.709-2.66-7.622-7.65-7.622-13.06    s2.912-10.399,7.622-13.06l83.074-46.936c4.644-2.623,10.333-2.583,14.939,0.104c4.607,2.688,7.439,7.621,7.439,12.955V193    c0,5.334-2.833,10.267-7.439,12.955C159.16,207.317,156.548,208,153.935,208z"/>
	</g>
	<g>
		<g>
			<path style="fill:#FFE470;" d="M258.172,425c-74.439,0-135-60.561-135-134.999V135c0-74.439,60.561-135,135-135     c74.439,0,135,60.561,135,135v155.001C393.172,364.439,332.611,425,258.172,425z"/>
		</g>
	</g>
	<path style="fill:#FDBF00;" d="M258.206,0V425c74.424-0.019,134.966-60.572,134.966-134.999V135   C393.172,60.572,332.63,0.019,258.206,0z"/>
	<g>
		<path style="fill:#FFF4F4;" d="M258.206,512c-107.699,0-194.639-86.748-197.927-197.489c-0.75-25.23,4.111-54.882,14.447-88.13    c1.34-4.311,4.55-7.788,8.739-9.469c4.189-1.679,8.913-1.384,12.86,0.805l53.138,29.472l45.996-34.223    c5.314-3.955,12.594-3.955,17.908,0l44.806,33.338l44.806-33.338c5.314-3.955,12.594-3.955,17.908,0l46.021,34.241l53.334-29.375    c3.974-2.189,8.725-2.463,12.925-0.741c4.198,1.721,7.393,5.25,8.688,9.599c9.479,31.831,14.286,61.229,14.286,87.376    C456.14,423.207,367.347,512,258.206,512z"/>
	</g>
	<path style="fill-rule:evenodd;clip-rule:evenodd;fill:#B34F03;" d="M199.214,138c8.262,0,15-6.738,15-15c0-8.262-6.738-15-15-15   s-15,6.739-15,15C184.214,131.262,190.952,138,199.214,138z"/>
	<path style="fill:#EEE1DC;" d="M441.854,226.689c-1.295-4.349-4.489-7.878-8.688-9.599c-4.2-1.722-8.951-1.448-12.925,0.741   l-53.334,29.375l-46.021-34.241c-5.314-3.955-12.594-3.955-17.908,0l-44.772,33.313V512c109.141,0,197.934-88.793,197.934-197.935   C456.14,287.918,451.333,258.521,441.854,226.689z"/>
</g>















</svg>
